<svg width="135" height="138" viewBox="0 0 135 138" fill="none" xmlns="http://www.w3.org/2000/svg">
<g clip-path="url(#clip0_277_36)">
<path d="M0 0.252319H24.8358V137.638H0V0.252319Z" fill="#231F20"/>
<path d="M44.5896 93.2983V36.8798H65.8872V92.4266C65.8872 107.758 75.7388 118.608 89.6478 118.608C103.557 118.608 113.266 107.758 113.266 92.4266V36.8798H134.711V93.2983C134.711 119.48 116.018 138 89.6478 138C63.2773 138 44.585 119.484 44.585 93.2983H44.5896Z" fill="#231F20"/>
<path d="M44.3916 13.8775C44.3916 6.32173 50.7235 0 58.1903 0C65.6571 0 71.9338 6.32173 71.9338 13.8775C71.9338 21.4333 65.6525 27.8055 58.1903 27.8055C50.7281 27.8055 44.3916 21.4333 44.3916 13.8775ZM70.082 13.8775C70.082 7.34936 64.6232 1.84881 58.1903 1.84881C51.7573 1.84881 46.248 7.34936 46.248 13.8775C46.248 20.4057 51.7068 25.9567 58.1903 25.9567C64.6738 25.9567 70.082 20.4562 70.082 13.8775Z" fill="#231F20"/>
<path d="M72.0898 0.614738H73.9968L81.9782 24.7181L89.9505 0.614738H91.5449L99.5264 24.7181L107.508 0.614738H109.415L100.661 27.1862H98.3455L90.727 4.05545L83.1086 27.1862H80.7927L72.0898 0.614738Z" fill="#231F20"/>
<path d="M132.169 22.305L133.456 23.6904C131.241 26.1081 126.609 27.8009 122.336 27.8009C115.232 27.8009 109.259 21.4287 109.259 13.8225C109.259 6.21622 115.025 0 122.336 0C129.647 0 135 5.90885 135 14.7492H111.166C111.579 20.9149 116.569 25.9521 122.336 25.9521C126.145 25.9521 129.955 24.7181 132.169 22.305ZM111.166 12.9004H133.148C132.84 6.27127 128.617 1.84881 122.336 1.84881C116.055 1.84881 111.575 6.67957 111.166 12.9004Z" fill="#231F20"/>
</g>
<defs>
<clipPath id="clip0_277_36">
<rect width="135" height="138" fill="white"/>
</clipPath>
</defs>
</svg>
