<svg width="126" height="27" viewBox="0 0 126 27" fill="none" xmlns="http://www.w3.org/2000/svg">
<g clip-path="url(#clip0_173_2)">
<path d="M0 0.11179H5.84545V27H0V0.11179Z" fill="#231F20"/>
<path d="M101.808 15.0896V0.0585575H107.526V14.8585C107.526 18.9437 110.171 21.8353 113.904 21.8353C117.637 21.8353 120.244 18.9447 120.244 14.8585V0.0585575H126V15.0896C126 22.0663 120.983 26.9989 113.904 26.9989C106.825 26.9989 101.808 22.0653 101.808 15.0896Z" fill="#231F20"/>
<path d="M10.0312 13.4744C10.0312 6.13888 16.2259 0 23.5281 0C30.8304 0 36.9745 6.13888 36.9745 13.4744C36.9745 20.81 30.8304 26.9989 23.5281 26.9989C16.2259 26.9989 10.0312 20.81 10.0312 13.4744ZM35.161 13.4744C35.161 7.13647 29.8226 1.7961 23.5281 1.7961C17.2336 1.7961 11.8447 7.13647 11.8447 13.4744C11.8447 19.8124 17.1831 25.2028 23.5281 25.2028C29.8731 25.2028 35.161 19.8625 35.161 13.4744Z" fill="#231F20"/>
<path d="M36.6221 0.598343H38.485L46.2911 24.0051L54.0961 0.598343H55.6571L63.4632 24.0051L71.2693 0.598343H73.1322L64.5709 26.4006H62.3051L54.8524 3.94247L47.3987 26.4006H45.1329L36.6221 0.598343Z" fill="#231F20"/>
<path d="M94.8382 21.6596L96.0974 23.0075C93.9315 25.353 89.4 27 85.2197 27C78.2699 27 72.4287 20.8111 72.4287 13.4255C72.4287 6.03987 78.069 0 85.2197 0C92.3705 0 97.6079 5.73963 97.6079 14.323H74.2916C74.6945 20.3118 79.5795 25.2028 85.2197 25.2028C88.9466 25.2028 92.6735 24.0051 94.8382 21.6596ZM74.2916 12.5269H95.7955C95.4936 6.08884 91.3638 1.79716 85.2197 1.79716C79.0756 1.79716 74.6945 6.48809 74.2916 12.5269Z" fill="#231F20"/>
</g>
<defs>
<clipPath id="clip0_173_2">
<rect width="126" height="27" fill="white"/>
</clipPath>
</defs>
</svg>
